<svg xmlns="http://www.w3.org/2000/svg" width="48" height="48" viewBox="0 0 48 48">
  <defs>
    <style>
      .a {
        fill: none;
        stroke: #231815;
        stroke-linecap: round;
        stroke-linejoin: round;
        stroke-width: 2px;
      }
    </style>
  </defs>
  <title>1012_sy_h</title>
  <path class="a" d="M29.42,14.5a5.18,5.18,0,0,0-4.2,2,1.55,1.55,0,0,1-2.44,0,5.18,5.18,0,0,0-4.2-2c-3.93,0-5.93,3.64-5.53,7,.35,2.84,2.49,5.66,4.5,7.66a32.6,32.6,0,0,0,5.67,4.18,1.55,1.55,0,0,0,1.56,0,32.6,32.6,0,0,0,5.67-4.18c2-2,4.15-4.82,4.5-7.66C35.35,18.14,33.35,14.5,29.42,14.5Z"/>
</svg>
